# xmcd CD database file
#
# Track frame offsets:
#	183
#	14015
#	29940
#	44508
#	75323
#	94170
#	112605
#	120465
#	131885
#
# Disc length: 1945 seconds
#
# Revision: 0
# Processed by: cddbd v1.5.1PL2 Copyright (c) Steve Scherf et al.
# Submitted via: CDex 1.51
#
DISCID=72079709
DTITLE=Henri Texier - Varech
DYEAR=1977
DGENRE=Jazz
TTITLE0=Les "là bas"
TTITLE1=Quand le blues s'en ira
TTITLE2=L'éléphant
TTITLE3=Terre-basse
TTITLE4=Varech
TTITLE5=Mr Donald Cerise
TTITLE6=Angèle
TTITLE7=L'écluse
TTITLE8=L'ultime danse
EXTD=YEAR: 1977
EXTT0=
EXTT1=
EXTT2=
EXTT3=
EXTT4=
EXTT5=
EXTT6=
EXTT7=
EXTT8=
PLAYORDER=
